<svg width="319" height="310" viewBox="0 0 319 310" fill="none" xmlns="http://www.w3.org/2000/svg">
<g clip-path="url(#clip0_80_2)">
<path d="M165.154 0C166.481 0.293801 167.84 0.188032 169.182 0.267946C174.515 0.595436 179.815 1.17285 185.081 2.0002C192.492 3.15166 199.807 4.82561 206.969 7.00892C233.373 15.0622 257.181 29.6673 276.063 49.3944C294.944 69.1216 308.251 93.2945 314.681 119.546C316.396 126.548 317.604 133.659 318.294 140.827C318.752 145.58 319.108 150.346 318.971 155.12C318.807 160.742 318.535 166.357 317.892 171.956C314.04 205.452 299.098 236.809 275.332 261.271C260.133 277.018 241.721 289.483 221.284 297.862C211.543 301.889 201.406 304.935 191.031 306.954C183.979 308.335 176.838 309.246 169.659 309.683C162.438 310.13 155.195 310.105 147.978 309.61C114.01 307.249 81.7198 294.299 55.8695 272.671C34.7265 254.935 19.3209 233.309 9.65281 207.795C5.97911 198.082 3.34805 188.023 1.80187 177.78C0.28661 167.805 -0.349367 157.773 0.190249 147.695C1.98123 113.476 15.2942 80.7899 38.0647 54.7053C60.8351 28.6207 91.7905 10.5953 126.13 3.42454C133.456 1.90926 140.879 0.888328 148.349 0.369014C150.047 0.249143 151.748 0.209186 153.446 0.133973C153.681 0.110573 153.914 0.0744779 154.145 0.0258546L165.154 0Z" fill="#383838"/>
<path d="M256.826 140.738C239.539 140.738 222.254 140.738 204.97 140.738C204.413 140.738 204.108 140.655 203.859 140.065C197.721 125.524 186.893 116.195 171.097 112.892C157.621 110.072 145.284 113.045 134.352 121.234C127.824 126.128 123.112 132.403 120.151 139.91C119.91 140.529 119.621 140.747 118.911 140.747C82.8239 140.727 46.737 140.72 10.6502 140.728C9.4457 140.728 9.44569 140.728 9.56374 139.567C10.1873 133.573 11.2207 127.625 12.6569 121.765C19.3486 94.1888 34.0497 69.0805 54.9979 49.4502C75.946 29.8199 102.252 16.5007 130.763 11.0892C135.369 10.2125 140.016 9.58731 144.689 9.15013C150.164 8.61924 155.664 8.38384 161.165 8.44501C166.58 8.52038 171.988 8.86162 177.368 9.46744C188.086 10.6836 198.635 13.0386 208.829 16.4905C229.825 23.6022 248.955 35.1411 264.861 50.2862C280.766 65.4314 293.055 83.8105 300.853 104.116C304.206 112.83 306.686 121.841 308.258 131.021C308.762 133.978 309.092 136.965 309.547 139.932C309.668 140.712 309.306 140.749 308.685 140.749C291.396 140.735 274.11 140.731 256.826 140.738Z" fill="#4B4A4A"/>
<path d="M65.7898 174.21C84.0597 174.21 102.329 174.204 120.597 174.193C121.182 174.193 121.471 174.353 121.722 174.863C125.452 182.303 131.267 188.559 138.492 192.905C145.718 197.251 154.059 199.51 162.547 199.418C171.812 199.23 180.28 196.597 187.864 191.351C194.035 187.107 198.999 181.401 202.289 174.769C202.353 174.584 202.48 174.426 202.65 174.321C202.82 174.217 203.022 174.174 203.221 174.198C238.216 174.209 273.213 174.209 308.212 174.198C309.176 174.198 308.844 174.621 308.781 175.138C308.398 178.3 307.817 181.428 307.143 184.54C305.712 191.182 303.814 197.721 301.465 204.109C296.411 217.882 289.271 230.838 280.282 242.546C275.025 249.424 269.152 255.834 262.733 261.699C250.96 272.507 237.48 281.396 222.811 288.024C213.384 292.293 203.524 295.587 193.392 297.851C189.629 298.69 185.847 299.425 182.034 299.983C179.165 300.401 176.276 300.688 173.385 300.97C167.428 301.562 161.456 301.644 155.482 301.553C152.22 301.503 148.977 301.271 145.713 300.984C143.133 300.749 140.556 300.5 138.004 300.142C111.185 296.392 85.9035 285.639 64.8334 269.021C58.4525 264.013 52.5017 258.505 47.0405 252.551C33.5164 237.725 23.36 220.967 16.757 202.18C14.5226 195.886 12.7515 189.446 11.4572 182.906C10.9465 180.286 10.5417 177.649 10.0527 175.025C9.93709 174.417 10.0985 174.203 10.8091 174.203C29.14 174.218 47.4669 174.221 65.7898 174.21Z" fill="#B0B0B0"/>
<path d="M161.902 120.188C182.229 120.28 198.437 136.19 198.319 155.895C198.213 165.258 194.318 174.2 187.482 180.771C180.646 187.343 171.424 191.011 161.828 190.975C152.232 190.939 143.039 187.203 136.255 180.581C129.471 173.959 125.645 164.988 125.613 155.625C125.651 135.828 141.996 120.327 161.902 120.188Z" fill="white"/>
</g>
<defs>
<clipPath id="clip0_80_2">
<rect width="319" height="310" fill="white"/>
</clipPath>
</defs>
</svg>
